<?xml version="1.0" standalone="no"?>
<!DOCTYPE svg PUBLIC "-//W3C//DTD SVG 20010904//EN"
 "http://www.w3.org/TR/2001/REC-SVG-20010904/DTD/svg10.dtd">
<svg version="1.0" xmlns="http://www.w3.org/2000/svg"
 width="225.000000pt" height="225.000000pt" viewBox="0 0 225.000000 225.000000"
 preserveAspectRatio="xMidYMid meet">

<g transform="translate(0.000000,225.000000) scale(0.100000,-0.100000)"
fill="#000000" stroke="none">
<path d="M572 1969 c-94 -47 -169 -145 -213 -279 -12 -36 -23 -67 -25 -69 -1
-2 -17 7 -34 19 -44 31 -63 75 -64 145 -1 52 -3 60 -20 60 -27 0 -39 -48 -25
-106 12 -55 60 -116 105 -135 l33 -14 0 -82 c-1 -95 11 -150 44 -199 66 -99
202 -116 292 -38 l35 31 0 -25 c0 -13 -3 -38 -6 -55 -5 -26 -12 -31 -46 -36
-89 -14 -166 -74 -209 -161 -27 -55 -31 -73 -27 -117 4 -42 11 -57 37 -80 36
-32 98 -38 155 -14 69 29 126 132 150 270 7 38 18 72 24 74 25 8 81 -48 99
-98 19 -53 38 -69 27 -22 -13 53 -37 94 -73 118 -19 13 -41 24 -48 24 -17 0
-7 229 13 310 24 95 16 132 -25 111 -25 -14 -48 -85 -60 -185 -8 -69 -13 -83
-43 -113 -56 -60 -121 -77 -178 -48 -57 29 -102 175 -85 274 6 38 9 41 38 41
54 0 154 28 217 60 117 59 180 138 180 226 0 128 -129 183 -268 113z m181 -3
c44 -18 69 -58 69 -111 0 -52 -19 -89 -69 -136 -67 -65 -202 -119 -294 -119
l-47 0 14 63 c19 80 72 193 114 241 62 70 140 93 213 62z m34 -428 c-3 -7 -5
-2 -5 12 0 14 2 19 5 13 2 -7 2 -19 0 -25z m-103 -420 c-9 -79 -32 -176 -50
-214 -40 -83 -130 -111 -180 -56 -23 24 -26 34 -22 84 9 117 126 235 236 238
22 0 22 -3 16 -52z"/>
<path d="M1947 1989 c-43 -25 -87 -156 -107 -314 -6 -49 -13 -104 -16 -122
l-5 -32 -34 16 c-67 32 -139 -12 -180 -110 -16 -38 -40 -57 -74 -57 -17 0 -21
6 -21 30 0 42 -22 90 -55 120 -20 19 -37 25 -70 24 -63 -1 -105 -30 -138 -94
-30 -61 -50 -80 -83 -80 -18 0 -22 7 -28 51 -5 38 -15 59 -41 87 -32 35 -37
37 -89 35 -46 -1 -58 2 -66 17 -48 90 84 171 257 156 43 -3 128 -18 188 -32
263 -60 315 -64 356 -23 39 39 13 146 -43 175 -27 14 -32 14 -54 -1 -13 -8
-24 -21 -24 -27 0 -9 3 -9 12 0 21 21 58 13 89 -17 22 -23 29 -39 29 -69 0
-23 -6 -45 -15 -52 -23 -19 -111 -7 -293 41 -192 50 -325 62 -398 34 -98 -37
-140 -104 -116 -183 10 -31 9 -37 -12 -53 -81 -64 -71 -246 16 -299 39 -24 88
-26 127 -6 34 18 55 49 71 103 10 32 18 42 39 46 14 2 34 8 44 12 14 6 17 2
17 -21 1 -46 36 -112 72 -134 84 -51 180 0 203 108 5 23 12 32 26 32 11 0 29
5 40 10 17 10 19 7 19 -25 0 -105 84 -169 153 -115 14 11 37 44 51 73 25 51
25 51 26 19 1 -98 96 -149 157 -84 40 42 102 205 83 217 -5 3 -16 -21 -25 -52
-37 -128 -97 -195 -132 -147 -11 14 -14 47 -11 135 l3 116 62 124 c88 175 116
302 77 357 -16 24 -56 29 -87 11z m77 -25 c12 -32 5 -116 -15 -176 -27 -80
-101 -226 -106 -210 -3 7 3 71 12 143 16 129 38 223 57 247 15 17 45 15 52 -4z
m-975 -453 c21 -21 41 -80 41 -119 l0 -22 -39 20 c-44 22 -81 64 -81 91 0 17
34 49 52 49 5 0 17 -9 27 -19z m360 9 c23 -12 51 -79 51 -120 l0 -30 -39 20
c-44 22 -81 64 -81 91 0 10 10 25 22 33 26 19 24 19 47 6z m396 -20 c26 -29
16 -102 -26 -185 -38 -77 -59 -96 -86 -79 -26 16 -25 164 1 214 38 73 75 90
111 50z m-762 -129 c46 -23 47 -24 41 -60 -15 -87 -64 -123 -110 -80 -26 24
-48 111 -39 153 3 14 7 38 10 52 l6 26 22 -34 c12 -18 44 -44 70 -57z m370 0
c47 -24 48 -26 42 -60 -9 -52 -37 -95 -64 -99 -57 -9 -100 90 -81 189 6 28 10
54 10 57 0 3 10 -10 23 -28 12 -19 44 -45 70 -59z"/>
<path d="M1290 1778 c199 -59 279 -78 331 -78 67 0 82 17 16 18 -23 1 -107 17
-187 37 -79 19 -155 35 -169 34 -23 -1 -21 -2 9 -11z"/>
<path d="M1177 1582 c-15 -16 -15 -19 3 -29 14 -10 21 -9 31 3 10 12 9 18 -3
30 -13 13 -16 13 -31 -4z"/>
<path d="M1540 1575 c-10 -12 -10 -18 0 -30 12 -14 15 -14 31 1 14 13 16 20 8
31 -15 17 -24 17 -39 -2z"/>
<path d="M540 1335 c-10 -12 -10 -18 0 -30 12 -14 15 -14 31 1 14 13 16 20 8
31 -15 17 -24 17 -39 -2z"/>
<path d="M2013 1190 c-10 -14 -9 -21 3 -31 12 -10 18 -9 30 3 13 13 13 16 -4
31 -16 15 -19 15 -29 -3z"/>
<path d="M1133 1161 c-42 -11 -61 -27 -65 -54 -2 -16 -16 -25 -55 -37 -73 -21
-79 -30 -44 -64 l30 -28 -27 -48 c-15 -27 -25 -51 -22 -54 3 -3 37 0 75 6 122
18 116 15 105 43 -8 20 -6 27 6 32 20 7 184 -4 256 -17 108 -21 323 -41 365
-35 42 6 43 5 43 -21 0 -25 2 -26 33 -20 17 4 71 9 120 13 48 3 87 8 87 10 0
11 -25 51 -47 75 l-25 26 36 48 c20 26 36 50 36 55 0 4 -13 4 -30 -1 -16 -5
-49 -10 -72 -12 -41 -3 -43 -1 -46 25 -3 21 -8 27 -19 22 -85 -32 -203 -29
-392 12 -123 26 -295 38 -348 24z m362 -42 c77 -17 132 -23 240 -23 l140 -1
-3 -77 -3 -77 -37 -13 c-54 -18 -189 -14 -332 12 -69 12 -191 24 -272 27 -145
6 -146 6 -151 30 -7 40 13 117 36 137 20 16 35 18 152 13 82 -3 167 -13 230
-28z m-435 -59 c0 -5 -10 -10 -22 -11 -18 0 -19 -2 -7 -7 9 -4 15 -15 13 -24
-1 -10 3 -18 9 -18 5 0 8 -3 4 -6 -7 -8 21 -66 37 -76 17 -11 5 -15 -61 -21
l-62 -5 20 40 20 40 -26 34 c-15 20 -25 37 -24 39 5 4 71 23 87 24 6 1 12 -3
12 -9z m921 -31 l-30 -42 34 -40 c19 -22 35 -44 35 -48 0 -4 -40 -9 -89 -11
l-89 -3 24 28 c25 30 27 38 25 104 -1 41 -1 42 36 46 93 9 89 12 54 -34z"/>
<path d="M1168 1133 c8 -3 12 -27 12 -69 0 -40 4 -64 11 -64 8 0 9 20 4 66
l-7 67 26 -5 c14 -3 26 -1 26 3 0 5 -19 9 -42 8 -24 0 -37 -3 -30 -6z"/>
<path d="M1270 1065 c0 -39 4 -65 11 -65 6 0 9 24 7 65 -4 84 -18 84 -18 0z"/>
<path d="M1350 1096 c0 -19 -6 -26 -27 -29 l-28 -4 28 -2 c24 -1 27 -5 27 -36
0 -19 5 -35 10 -35 6 0 10 28 10 65 0 37 -4 65 -10 65 -5 0 -10 -11 -10 -24z"/>
<path d="M1420 1045 c0 -37 4 -65 10 -65 6 0 10 28 10 65 0 37 -4 65 -10 65
-6 0 -10 -28 -10 -65z"/>
<path d="M1492 1035 c1 -56 2 -61 5 -22 l4 47 40 -50 c22 -27 42 -50 44 -50 3
0 4 28 3 63 l-1 62 -6 -48 -6 -49 -42 58 -43 58 2 -69z"/>
<path d="M1637 1052 c-10 -10 -17 -29 -17 -41 0 -32 43 -71 80 -71 27 0 30 3
30 30 0 17 -4 30 -9 30 -4 0 -6 -11 -3 -25 4 -21 1 -25 -21 -25 -47 0 -75 71
-41 104 8 9 11 16 6 16 -5 0 -16 -8 -25 -18z"/>
<path d="M1700 1066 c0 -2 7 -6 15 -10 8 -3 15 -1 15 4 0 6 -7 10 -15 10 -8 0
-15 -2 -15 -4z"/>
<path d="M1777 1063 c-14 -13 -6 -38 19 -64 28 -29 24 -54 -7 -46 -11 3 -19 1
-19 -4 0 -13 34 -11 48 3 19 19 14 42 -13 68 -14 13 -23 30 -21 37 6 14 3 17
-7 6z"/>
<path d="M1028 953 c7 -3 16 -2 19 1 4 3 -2 6 -13 5 -11 0 -14 -3 -6 -6z"/>
<path d="M1178 924 c-15 -15 -7 -19 30 -16 20 2 119 -13 220 -32 210 -41 288
-45 323 -17 23 19 23 19 -46 14 -51 -4 -106 2 -205 22 -140 27 -309 43 -322
29z"/>
<path d="M778 853 c-12 -3 -18 -14 -18 -32 0 -25 3 -27 31 -23 21 3 29 9 25
19 -3 8 -6 21 -6 29 0 14 -2 15 -32 7z"/>
<path d="M943 845 c-62 -27 -83 -133 -29 -143 17 -4 18 -3 2 19 -43 63 1 122
88 117 l51 -3 3 -65 c4 -86 -14 -217 -34 -248 -11 -17 -12 -23 -3 -20 41 14
68 116 69 259 l0 66 49 -5 c59 -5 97 2 104 22 5 11 1 11 -24 -1 -26 -13 -38
-13 -108 1 -95 19 -126 20 -168 1z"/>
<path d="M1478 813 c-11 -3 -18 -14 -18 -27 0 -19 4 -22 23 -19 19 4 23 10 19
29 -2 13 -5 23 -6 23 0 -1 -9 -3 -18 -6z"/>
<path d="M1145 780 c-8 -14 3 -30 21 -30 8 0 14 9 14 20 0 21 -24 28 -35 10z"/>
<path d="M490 760 c0 -5 11 -10 25 -10 25 0 25 -1 25 -90 0 -65 3 -90 13 -90
9 0 11 20 9 76 -5 96 -1 107 33 94 14 -5 25 -6 25 -1 0 5 -12 12 -27 15 -83
15 -103 16 -103 6z"/>
<path d="M416 753 c-10 -10 -7 -21 8 -26 8 -3 17 0 20 8 5 14 -17 28 -28 18z"/>
<path d="M1780 734 c0 -17 22 -14 28 4 2 7 -3 12 -12 12 -9 0 -16 -7 -16 -16z"/>
<path d="M660 706 c0 -2 -11 -33 -25 -70 -14 -36 -21 -66 -16 -66 5 0 12 11
15 25 5 18 13 25 31 25 18 0 26 -7 31 -25 3 -14 12 -25 19 -25 9 0 5 21 -14
70 -14 38 -29 70 -33 70 -5 0 -8 -2 -8 -4z m19 -68 c1 -5 -6 -8 -14 -8 -16 0
-19 9 -8 36 6 16 7 16 14 -2 4 -10 8 -22 8 -26z"/>
<path d="M1142 698 c-16 -16 -16 -150 0 -166 22 -22 67 -14 80 13 13 29 28 34
21 6 -3 -13 2 -23 16 -31 25 -13 26 -10 35 64 7 61 26 100 50 104 17 4 18 -3
15 -82 -4 -82 -3 -86 17 -86 18 0 22 8 27 48 7 57 35 122 53 122 9 0 14 -23
16 -76 3 -66 6 -79 25 -91 21 -14 25 -13 54 16 17 18 32 31 33 29 19 -45 53
-61 96 -46 35 13 59 37 81 80 29 57 22 59 -10 3 -41 -72 -100 -94 -116 -44 -5
13 5 30 34 57 47 44 51 68 17 83 -41 19 -82 -11 -101 -73 -16 -54 -39 -88 -62
-88 -10 0 -13 18 -13 69 0 103 -40 132 -86 64 l-22 -33 -6 25 c-7 28 -37 48
-61 39 -8 -4 -22 -18 -31 -33 l-15 -26 4 28 c5 31 -3 40 -27 31 -11 -4 -16
-19 -16 -43 0 -40 -37 -123 -57 -129 -16 -5 -35 42 -29 71 15 72 16 107 3 107
-7 0 -18 -5 -25 -12z m549 -45 c-5 -11 -22 -28 -37 -38 l-27 -17 6 38 c8 47
34 71 55 50 10 -10 11 -19 3 -33z"/>
<path d="M760 635 c0 -47 4 -65 13 -65 9 0 12 10 9 30 -2 17 -1 30 3 30 3 0
18 -13 32 -30 13 -16 32 -30 41 -30 11 0 4 12 -22 39 l-37 38 25 20 c14 11 23
23 19 26 -3 4 -14 -5 -25 -18 -25 -32 -42 -32 -36 0 4 17 1 25 -8 25 -10 0
-14 -17 -14 -65z"/>
<path d="M900 630 c0 -57 1 -60 25 -60 16 0 23 -4 19 -13 -3 -8 5 -25 16 -38
l21 -24 -11 24 c-7 12 -10 32 -7 42 4 15 0 19 -20 19 -21 0 -24 4 -23 28 4 52
0 82 -10 82 -6 0 -10 -27 -10 -60z"/>
<path d="M391 654 c-12 -15 -21 -31 -21 -37 0 -6 1 -8 3 -6 1 2 15 19 31 37
17 17 25 32 19 32 -7 0 -21 -12 -32 -26z"/>
<path d="M1842 653 c43 -45 45 -75 9 -116 -67 -75 -189 -102 -422 -92 -108 5
-169 3 -200 -5 -48 -13 -79 -35 -79 -58 0 -10 5 -7 18 8 20 25 66 27 347 21
129 -3 171 -1 218 13 105 31 173 117 148 188 -12 35 -39 68 -54 68 -6 0 1 -12
15 -27z"/>
<path d="M360 582 c0 -61 71 -133 158 -158 46 -14 88 -16 217 -13 232 5 324 2
341 -12 21 -17 17 -72 -6 -97 -27 -28 -68 -38 -93 -22 -17 10 -19 10 -13 -5 3
-9 6 -19 6 -21 0 -2 15 -4 34 -4 71 0 129 119 79 162 -34 29 -60 32 -283 33
-185 1 -234 4 -279 19 -76 25 -118 55 -141 101 -16 32 -20 35 -20 17z"/>
<path d="M553 530 c31 -24 48 -24 207 -1 l125 19 -179 1 -179 1 26 -20z"/>
<path d="M705 380 c-50 -5 -19 -7 112 -8 100 -1 190 -5 200 -9 16 -6 16 -5 4
10 -11 14 -31 17 -130 15 -64 -1 -147 -4 -186 -8z"/>
<path d="M1230 380 c-8 -5 -12 -10 -10 -12 3 -2 93 -1 200 2 188 5 192 5 95
12 -136 11 -267 10 -285 -2z"/>
<path d="M1150 338 c0 -29 59 -88 89 -88 27 0 51 16 51 34 0 6 -5 5 -12 -2
-28 -28 -94 -2 -114 43 -8 17 -13 23 -14 13z"/>
</g>
</svg>
